999
DXF created by Inkscape
  0
SECTION
  2
HEADER
  9
$ACADVER
  1
AC1014
  9
$HANDSEED
  5
FFFF
  9
$MEASUREMENT
 70
     1
  0
ENDSEC
  0
SECTION
  2
TABLES
  0
TABLE
  2
VPORT
  5
8
330
0
100
AcDbSymbolTable
 70
     4
  0
VPORT
  5
2E
330
8
100
AcDbSymbolTableRecord
100
AcDbViewportTableRecord
  2
*ACTIVE
 70
     0
 10
0.0
 20
0.0
 11
1.0
 21
1.0
 12
210.0
 22
148.5
 13
0.0
 23
0.0
 14
10.0
 24
10.0
 15
10.0
 25
10.0
 16
0.0
 26
0.0
 36
1.0
 17
0.0
 27
0.0
 37
0.0
 40
341.0
 41
1.24
 42
50.0
 43
0.0
 44
0.0
 50
0.0
 51
0.0
 71
     0
 72
   100
 73
     1
 74
     3
 75
     0
 76
     0
 77
     0
 78
     0
  0
ENDTAB
  0
TABLE
  2
LTYPE
  5
5
330
0
100
AcDbSymbolTable
 70
     1
  0
LTYPE
  5
14
330
5
100
AcDbSymbolTableRecord
100
AcDbLinetypeTableRecord
  2
BYBLOCK
 70
     0
  3

 72
    65
 73
     0
 40
0.0
  0
LTYPE
  5
15
330
5
100
AcDbSymbolTableRecord
100
AcDbLinetypeTableRecord
  2
BYLAYER
 70
     0
  3

 72
    65
 73
     0
 40
0.0
  0
LTYPE
  5
16
330
5
100
AcDbSymbolTableRecord
100
AcDbLinetypeTableRecord
  2
CONTINUOUS
 70
     0
  3
Solid line
 72
    65
 73
     0
 40
0.0
  0
ENDTAB
  0
TABLE
  2
LAYER
  5
2
100
AcDbSymbolTable
 70
2
  0
LAYER
  5
50
100
AcDbSymbolTableRecord
100
AcDbLayerTableRecord
  2
0
 70
0
  6
CONTINUOUS
  0
LAYER
  5
51
100
AcDbSymbolTableRecord
100
AcDbLayerTableRecord
  2
Layer_1
 70
0
  6
CONTINUOUS
  0
ENDTAB
  0
TABLE
  2
STYLE
  5
3
330
0
100
AcDbSymbolTable
 70
     1
  0
STYLE
  5
11
330
3
100
AcDbSymbolTableRecord
100
AcDbTextStyleTableRecord
  2
STANDARD
 70
     0
 40
0.0
 41
1.0
 50
0.0
 71
     0
 42
2.5
  3
txt
  4

  0
ENDTAB
  0
TABLE
  2
VIEW
  5
6
330
0
100
AcDbSymbolTable
 70
     0
  0
ENDTAB
  0
TABLE
  2
UCS
  5
7
330
0
100
AcDbSymbolTable
 70
     0
  0
ENDTAB
  0
TABLE
  2
APPID
  5
9
330
0
100
AcDbSymbolTable
 70
     2
  0
APPID
  5
12
330
9
100
AcDbSymbolTableRecord
100
AcDbRegAppTableRecord
  2
ACAD
 70
     0
  0
ENDTAB
  0
TABLE
  2
DIMSTYLE
  5
A
330
0
100
AcDbSymbolTable
 70
     1
  0
DIMSTYLE
105
27
330
A
100
AcDbSymbolTableRecord
100
AcDbDimStyleTableRecord
  2
ISO-25
 70
     0
  3

  4

  5

  6

  7

 40
1.0
 41
2.5
 42
0.625
 43
3.75
 44
1.25
 45
0.0
 46
0.0
 47
0.0
 48
0.0
140
2.5
141
2.5
142
0.0
143
0.03937007874016
144
1.0
145
0.0
146
1.0
147
0.625
 71
     0
 72
     0
 73
     0
 74
     0
 75
     0
 76
     0
 77
     1
 78
     8
170
     0
171
     3
172
     1
173
     0
174
     0
175
     0
176
     0
177
     0
178
     0
270
     2
271
     2
272
     2
273
     2
274
     3
340
11
275
     0
280
     0
281
     0
282
     0
283
     0
284
     8
285
     0
286
     0
287
     3
288
     0
  0
ENDTAB
  0
TABLE
  2
BLOCK_RECORD
  5
1
330
0
100
AcDbSymbolTable
 70
     1
  0
BLOCK_RECORD
  5
1F
330
1
100
AcDbSymbolTableRecord
100
AcDbBlockTableRecord
  2
*MODEL_SPACE
  0
BLOCK_RECORD
  5
1B
330
1
100
AcDbSymbolTableRecord
100
AcDbBlockTableRecord
  2
*PAPER_SPACE
  0
ENDTAB
  0
ENDSEC
  0
SECTION
  2
BLOCKS
  0
BLOCK
  5
20
330
1F
100
AcDbEntity
  8
0
100
AcDbBlockBegin
  2
*MODEL_SPACE
 70
     0
 10
0.0
 20
0.0
 30
0.0
  3
*MODEL_SPACE
  1

  0
ENDBLK
  5
21
330
1F
100
AcDbEntity
  8
0
100
AcDbBlockEnd
  0
BLOCK
  5
1C
330
1B
100
AcDbEntity
 67
     1
  8
0
100
AcDbBlockBegin
  2
*PAPER_SPACE
  1

  0
ENDBLK
  5
1D
330
1B
100
AcDbEntity
 67
     1
  8
0
100
AcDbBlockEnd
  0
ENDSEC
  0
SECTION
  2
ENTITIES
  0
LWPOLYLINE
  5
100
100
AcDbEntity
  8
Layer_1
 62
7
100
AcDbPolyline
 90
9
 70
0
 10
10.013155
 20
10.319076
 30
0.0
 10
10.013155
 20
0.159076
 30
0.0
 10
5.847555
 20
0.159076
 30
0.0
 10
5.847555
 20
10.319076
 30
0.0
 10
-0.228125
 20
10.319076
 30
0.0
 10
-0.228125
 20
13.712516
 30
0.0
 10
15.987235
 20
13.712516
 30
0.0
 10
15.987235
 20
10.319076
 30
0.0
 10
10.013155
 20
10.319076
 30
0.0
  0
LWPOLYLINE
  5
101
100
AcDbEntity
  8
Layer_1
 62
7
100
AcDbPolyline
 90
27
 70
0
 10
21.640640
 20
6.945956
 30
0.0
 10
24.739440
 20
6.945956
 30
0.0
 10
27.838240
 20
6.945956
 30
0.0
 10
27.985551
 20
6.940876
 30
0.0
 10
28.102400
 20
6.925636
 30
0.0
 10
28.219231
 20
6.925630
 30
0.0
 10
28.366560
 20
6.925636
 30
0.0
 10
29.016791
 20
6.945956
 30
0.0
 10
29.504480
 20
7.006919
 30
0.0
 10
29.875308
 20
7.118676
 30
0.0
 10
30.134400
 20
7.291399
 30
0.0
 10
30.312188
 20
7.550473
 30
0.0
 10
30.398560
 20
7.880679
 30
0.0
 10
30.444268
 20
8.297236
 30
0.0
 10
30.459508
 20
8.815399
 30
0.0
 10
30.429017
 20
9.303073
 30
0.0
 10
30.337588
 20
9.668839
 30
0.0
 10
30.195337
 20
9.953313
 30
0.0
 10
29.971828
 20
10.156519
 30
0.0
 10
29.661937
 20
10.303833
 30
0.0
 10
29.260628
 20
10.380039
 30
0.0
 10
28.757700
 20
10.410516
 30
0.0
 10
28.143028
 20
10.420676
 30
0.0
 10
24.891828
 20
10.420676
 30
0.0
 10
21.640628
 20
10.420676
 30
0.0
 10
21.640628
 20
8.683316
 30
0.0
 10
21.640628
 20
6.945956
 30
0.0
  0
LWPOLYLINE
  5
102
100
AcDbEntity
  8
Layer_1
 62
7
100
AcDbPolyline
 90
45
 70
0
 10
21.640628
 20
3.654116
 30
0.0
 10
21.640628
 20
1.906596
 30
0.0
 10
21.640628
 20
0.159076
 30
0.0
 10
19.557828
 20
0.159076
 30
0.0
 10
17.475028
 20
0.159076
 30
0.0
 10
17.475028
 20
6.935796
 30
0.0
 10
17.475028
 20
13.712516
 30
0.0
 10
23.774228
 20
13.712516
 30
0.0
 10
30.073428
 20
13.712516
 30
0.0
 10
31.231657
 20
13.651547
 30
0.0
 10
32.186708
 20
13.468676
 30
0.0
 10
32.974097
 20
13.174027
 30
0.0
 10
33.588788
 20
12.737156
 30
0.0
 10
34.056137
 20
12.152947
 30
0.0
 10
34.360948
 20
11.416356
 30
0.0
 10
34.543814
 20
10.512110
 30
0.0
 10
34.604788
 20
9.424996
 30
0.0
 10
34.553974
 20
8.332790
 30
0.0
 10
34.401588
 20
7.494596
 30
0.0
 10
34.167897
 20
6.859593
 30
0.0
 10
33.832628
 20
6.376996
 30
0.0
 10
33.421137
 20
6.021393
 30
0.0
 10
32.918228
 20
5.767396
 30
0.0
 10
32.334017
 20
5.564193
 30
0.0
 10
31.678708
 20
5.360996
 30
0.0
 10
32.232417
 20
5.244153
 30
0.0
 10
32.755668
 20
5.137476
 30
0.0
 10
33.228097
 20
5.010473
 30
0.0
 10
33.629428
 20
4.792036
 30
0.0
 10
33.969777
 20
4.466913
 30
0.0
 10
34.218708
 20
4.019876
 30
0.0
 10
34.386337
 20
3.420433
 30
0.0
 10
34.442228
 20
2.597476
 30
0.0
 10
34.442228
 20
1.378276
 30
0.0
 10
34.442228
 20
0.159076
 30
0.0
 10
32.359428
 20
0.159076
 30
0.0
 10
30.276628
 20
0.159076
 30
0.0
 10
30.276628
 20
1.053156
 30
0.0
 10
30.276628
 20
1.947236
 30
0.0
 10
30.185177
 20
2.704156
 30
0.0
 10
29.910868
 20
3.227396
 30
0.0
 10
29.382537
 20
3.547433
 30
0.0
 10
28.488468
 20
3.654116
 30
0.0
 10
25.064548
 20
3.654116
 30
0.0
 10
21.640628
 20
3.654116
 30
0.0
  0
LWPOLYLINE
  5
103
100
AcDbEntity
  8
Layer_1
 62
7
100
AcDbPolyline
 90
5
 70
0
 10
40.829070
 20
13.712516
 30
0.0
 10
40.829070
 20
0.159076
 30
0.0
 10
36.663470
 20
0.159076
 30
0.0
 10
36.663470
 20
13.712516
 30
0.0
 10
40.829070
 20
13.712516
 30
0.0
  0
LWPOLYLINE
  5
104
100
AcDbEntity
  8
Layer_1
 62
7
100
AcDbPolyline
 90
11
 70
0
 10
43.192540
 20
0.159076
 30
0.0
 10
43.192540
 20
13.712516
 30
0.0
 10
57.558780
 20
13.712516
 30
0.0
 10
57.558780
 20
10.542596
 30
0.0
 10
47.276860
 20
10.542596
 30
0.0
 10
47.276860
 20
7.880676
 30
0.0
 10
57.030460
 20
7.880676
 30
0.0
 10
57.030460
 20
4.832676
 30
0.0
 10
47.276860
 20
4.832676
 30
0.0
 10
47.276860
 20
0.159076
 30
0.0
 10
43.192540
 20
0.159076
 30
0.0
  0
LWPOLYLINE
  5
105
100
AcDbEntity
  8
Layer_1
 62
7
100
AcDbPolyline
 90
37
 70
0
 10
62.763875
 20
7.514916
 30
0.0
 10
62.768955
 20
6.559873
 30
0.0
 10
62.784195
 20
5.767396
 30
0.0
 10
62.845152
 20
5.117153
 30
0.0
 10
62.946755
 20
4.588836
 30
0.0
 10
63.119472
 20
4.177353
 30
0.0
 10
63.353155
 20
3.877636
 30
0.0
 10
63.688432
 20
3.664273
 30
0.0
 10
64.125315
 20
3.511876
 30
0.0
 10
64.689189
 20
3.415353
 30
0.0
 10
65.364835
 20
3.369636
 30
0.0
 10
66.192869
 20
3.354396
 30
0.0
 10
67.173315
 20
3.349316
 30
0.0
 10
69.052906
 20
3.359476
 30
0.0
 10
70.465155
 20
3.389956
 30
0.0
 10
71.486223
 20
3.522033
 30
0.0
 10
72.192355
 20
3.796356
 30
0.0
 10
72.649543
 20
4.248473
 30
0.0
 10
72.883235
 20
4.913956
 30
0.0
 10
72.974663
 20
5.868993
 30
0.0
 10
73.005155
 20
7.149156
 30
0.0
 10
72.974663
 20
8.200713
 30
0.0
 10
72.883235
 20
8.998276
 30
0.0
 10
72.715583
 20
9.597710
 30
0.0
 10
72.415875
 20
10.014276
 30
0.0
 10
71.963743
 20
10.293670
 30
0.0
 10
71.338915
 20
10.440996
 30
0.0
 10
70.510866
 20
10.501950
 30
0.0
 10
69.449155
 20
10.522270
 30
0.0
 10
67.518746
 20
10.522265
 30
0.0
 10
65.994755
 20
10.522270
 30
0.0
 10
64.826349
 20
10.456225
 30
0.0
 10
63.962755
 20
10.258110
 30
0.0
 10
63.368392
 20
9.917745
 30
0.0
 10
63.007715
 20
9.384350
 30
0.0
 10
62.824832
 20
8.602025
 30
0.0
 10
62.763875
 20
7.514910
 30
0.0
  0
LWPOLYLINE
  5
106
100
AcDbEntity
  8
Layer_1
 62
7
100
AcDbPolyline
 90
45
 70
0
 10
58.557635
 20
5.645470
 30
0.0
 10
58.567795
 20
7.438707
 30
0.0
 10
58.598275
 20
8.957630
 30
0.0
 10
58.725275
 20
10.247945
 30
0.0
 10
58.984355
 20
11.314750
 30
0.0
 10
59.421235
 20
12.168182
 30
0.0
 10
60.040995
 20
12.818430
 30
0.0
 10
60.924912
 20
13.306102
 30
0.0
 10
62.113635
 20
13.631230
 30
0.0
 10
63.398869
 20
13.758222
 30
0.0
 10
65.425795
 20
13.814110
 30
0.0
 10
68.214706
 20
13.844587
 30
0.0
 10
71.745315
 20
13.854747
 30
0.0
 10
72.939103
 20
13.798859
 30
0.0
 10
73.960195
 20
13.631227
 30
0.0
 10
74.818703
 20
13.341659
 30
0.0
 10
75.524835
 20
12.920027
 30
0.0
 10
76.103941
 20
12.376459
 30
0.0
 10
76.540835
 20
11.680507
 30
0.0
 10
76.850701
 20
10.827062
 30
0.0
 10
77.048835
 20
9.811067
 30
0.0
 10
77.109781
 20
9.155742
 30
0.0
 10
77.130129
 20
8.327707
 30
0.0
 10
77.145341
 20
7.337105
 30
0.0
 10
77.150449
 20
6.194107
 30
0.0
 10
77.104715
 20
4.822505
 30
0.0
 10
76.967569
 20
3.674427
 30
0.0
 10
76.718635
 20
2.739707
 30
0.0
 10
76.337649
 20
1.967547
 30
0.0
 10
75.814398
 20
1.352867
 30
0.0
 10
75.138769
 20
0.890587
 30
0.0
 10
74.310718
 20
0.550227
 30
0.0
 10
73.289649
 20
0.301307
 30
0.0
 10
72.070438
 20
0.153987
 30
0.0
 10
70.648049
 20
0.077787
 30
0.0
 10
69.017360
 20
0.032070
 30
0.0
 10
67.132689
 20
0.016830
 30
0.0
 10
65.019403
 20
0.052390
 30
0.0
 10
63.231249
 20
0.159070
 30
0.0
 10
61.752966
 20
0.387670
 30
0.0
 10
60.569329
 20
0.829630
 30
0.0
 10
59.670166
 20
1.535750
 30
0.0
 10
59.045329
 20
2.516190
 30
0.0
 10
58.679569
 20
3.867467
 30
0.0
 10
58.557649
 20
5.645470
 30
0.0
  0
LWPOLYLINE
  5
107
100
AcDbEntity
  8
Layer_1
 62
7
100
AcDbPolyline
 90
27
 70
0
 10
83.195951
 20
6.945956
 30
0.0
 10
86.294751
 20
6.945956
 30
0.0
 10
89.393554
 20
6.945956
 30
0.0
 10
89.540862
 20
6.940876
 30
0.0
 10
89.657711
 20
6.925636
 30
0.0
 10
89.774542
 20
6.925630
 30
0.0
 10
89.921871
 20
6.925636
 30
0.0
 10
90.572102
 20
6.945956
 30
0.0
 10
91.059794
 20
7.006919
 30
0.0
 10
91.430622
 20
7.118676
 30
0.0
 10
91.689711
 20
7.291399
 30
0.0
 10
91.867502
 20
7.550473
 30
0.0
 10
91.953874
 20
7.880679
 30
0.0
 10
91.999579
 20
8.297236
 30
0.0
 10
92.014819
 20
8.815399
 30
0.0
 10
91.984328
 20
9.303073
 30
0.0
 10
91.892902
 20
9.668839
 30
0.0
 10
91.750651
 20
9.953313
 30
0.0
 10
91.527142
 20
10.156519
 30
0.0
 10
91.217251
 20
10.303833
 30
0.0
 10
90.815939
 20
10.380039
 30
0.0
 10
90.313011
 20
10.410516
 30
0.0
 10
89.698339
 20
10.420676
 30
0.0
 10
86.447139
 20
10.420676
 30
0.0
 10
83.195939
 20
10.420676
 30
0.0
 10
83.195939
 20
8.683316
 30
0.0
 10
83.195939
 20
6.945956
 30
0.0
  0
LWPOLYLINE
  5
108
100
AcDbEntity
  8
Layer_1
 62
7
100
AcDbPolyline
 90
45
 70
0
 10
83.195939
 20
3.654116
 30
0.0
 10
83.195939
 20
1.906596
 30
0.0
 10
83.195939
 20
0.159076
 30
0.0
 10
81.113139
 20
0.159076
 30
0.0
 10
79.030339
 20
0.159076
 30
0.0
 10
79.030339
 20
6.935796
 30
0.0
 10
79.030339
 20
13.712516
 30
0.0
 10
85.329539
 20
13.712516
 30
0.0
 10
91.628739
 20
13.712516
 30
0.0
 10
92.786968
 20
13.651547
 30
0.0
 10
93.742019
 20
13.468676
 30
0.0
 10
94.529408
 20
13.174027
 30
0.0
 10
95.144099
 20
12.737156
 30
0.0
 10
95.611448
 20
12.152947
 30
0.0
 10
95.916259
 20
11.416356
 30
0.0
 10
96.099128
 20
10.512110
 30
0.0
 10
96.160102
 20
9.424996
 30
0.0
 10
96.109288
 20
8.332790
 30
0.0
 10
95.956899
 20
7.494596
 30
0.0
 10
95.723205
 20
6.859593
 30
0.0
 10
95.387939
 20
6.376996
 30
0.0
 10
94.976448
 20
6.021393
 30
0.0
 10
94.473542
 20
5.767396
 30
0.0
 10
93.889331
 20
5.564193
 30
0.0
 10
93.234022
 20
5.360996
 30
0.0
 10
93.787728
 20
5.244153
 30
0.0
 10
94.310979
 20
5.137476
 30
0.0
 10
94.783408
 20
5.010473
 30
0.0
 10
95.184739
 20
4.792036
 30
0.0
 10
95.525088
 20
4.466913
 30
0.0
 10
95.774022
 20
4.019876
 30
0.0
 10
95.941648
 20
3.420433
 30
0.0
 10
95.997539
 20
2.597476
 30
0.0
 10
95.997539
 20
1.378276
 30
0.0
 10
95.997539
 20
0.159076
 30
0.0
 10
93.914739
 20
0.159076
 30
0.0
 10
91.831939
 20
0.159076
 30
0.0
 10
91.831939
 20
1.053156
 30
0.0
 10
91.831939
 20
1.947236
 30
0.0
 10
91.740491
 20
2.704156
 30
0.0
 10
91.466182
 20
3.227396
 30
0.0
 10
90.937851
 20
3.547433
 30
0.0
 10
90.043779
 20
3.654116
 30
0.0
 10
86.619859
 20
3.654116
 30
0.0
 10
83.195939
 20
3.654116
 30
0.0
  0
LWPOLYLINE
  5
109
100
AcDbEntity
  8
Layer_1
 62
7
100
AcDbPolyline
 90
14
 70
0
 10
102.323424
 20
13.712516
 30
0.0
 10
102.323424
 20
8.612196
 30
0.0
 10
104.457021
 20
8.612196
 30
0.0
 10
110.045021
 20
13.712516
 30
0.0
 10
115.734621
 20
13.712516
 30
0.0
 10
107.972381
 20
7.006916
 30
0.0
 10
116.567741
 20
0.159076
 30
0.0
 10
110.532701
 20
0.159076
 30
0.0
 10
104.457021
 20
5.320356
 30
0.0
 10
102.323424
 20
5.320356
 30
0.0
 10
102.323424
 20
0.159076
 30
0.0
 10
98.239101
 20
0.159076
 30
0.0
 10
98.239101
 20
13.712516
 30
0.0
 10
102.323424
 20
13.712516
 30
0.0
  0
LWPOLYLINE
  5
10a
100
AcDbEntity
  8
Layer_1
 62
7
100
AcDbPolyline
 90
5
 70
0
 10
121.268965
 20
3.938596
 30
0.0
 10
121.268965
 20
0.159076
 30
0.0
 10
117.184645
 20
0.159076
 30
0.0
 10
117.184645
 20
3.938596
 30
0.0
 10
121.268965
 20
3.938596
 30
0.0
  0
ENDSEC
  0
SECTION
  2
OBJECTS
  0
DICTIONARY
  5
C
330
0
100
AcDbDictionary
  3
ACAD_GROUP
350
D
  3
ACAD_MLINESTYLE
350
17
  0
DICTIONARY
  5
D
330
C
100
AcDbDictionary
  0
DICTIONARY
  5
1A
330
C
100
AcDbDictionary
  0
DICTIONARY
  5
17
330
C
100
AcDbDictionary
  3
STANDARD
350
18
  0
DICTIONARY
  5
19
330
C
100
AcDbDictionary
  0
ENDSEC
  0
EOF
