999
Inkscape export via OpenSCAD DXF Export
  0
SECTION
  2
HEADER
  9
$ACADVER
  1
AC1014
  9
$HANDSEED
  5
FFFF
  9
$MEASUREMENT
 70
     1
  0
ENDSEC
  0
SECTION
  2
TABLES
  0
TABLE
  2
VPORT
  5
8
330
0
100
AcDbSymbolTable
 70
     4
  0
VPORT
  5
2E
330
8
100
AcDbSymbolTableRecord
100
AcDbViewportTableRecord
  2
*ACTIVE
 70
     0
 10
0.0
 20
0.0
 11
1.0
 21
1.0
 12
210.0
 22
148.5
 13
0.0
 23
0.0
 14
10.0
 24
10.0
 15
10.0
 25
10.0
 16
0.0
 26
0.0
 36
1.0
 17
0.0
 27
0.0
 37
0.0
 40
341.0
 41
1.24
 42
50.0
 43
0.0
 44
0.0
 50
0.0
 51
0.0
 71
     0
 72
   100
 73
     1
 74
     3
 75
     0
 76
     0
 77
     0
 78
     0
  0
ENDTAB
  0
TABLE
  2
LTYPE
  5
5
330
0
100
AcDbSymbolTable
 70
     1
  0
LTYPE
  5
14
330
5
100
AcDbSymbolTableRecord
100
AcDbLinetypeTableRecord
  2
BYBLOCK
 70
     0
  3

 72
    65
 73
     0
 40
0.0
  0
LTYPE
  5
15
330
5
100
AcDbSymbolTableRecord
100
AcDbLinetypeTableRecord
  2
BYLAYER
 70
     0
  3

 72
    65
 73
     0
 40
0.0
  0
LTYPE
  5
16
330
5
100
AcDbSymbolTableRecord
100
AcDbLinetypeTableRecord
  2
CONTINUOUS
 70
     0
  3
Solid line
 72
    65
 73
     0
 40
0.0
  0
ENDTAB
  0
TABLE
0
TABLE
2
LAYER
5
2
330
0
100
AcDbSymbolTable
70
1
0
LAYER
5
10
330
2
100
AcDbSymbolTableRecord
100
AcDbLayerTableRecord
2
Layer_1
70
0
62
7
6
CONTINUOUS
0
ENDTAB
0
ENDSEC
  0
ENDTAB
  0
TABLE
  2
STYLE
  5
3
330
0
100
AcDbSymbolTable
 70
     1
  0
STYLE
  5
11
330
3
100
AcDbSymbolTableRecord
100
AcDbTextStyleTableRecord
  2
STANDARD
 70
     0
 40
0.0
 41
1.0
 50
0.0
 71
     0
 42
2.5
  3
txt
  4

  0
ENDTAB
  0
TABLE
  2
VIEW
  5
6
330
0
100
AcDbSymbolTable
 70
     0
  0
ENDTAB
  0
TABLE
  2
UCS
  5
7
330
0
100
AcDbSymbolTable
 70
     0
  0
ENDTAB
  0
TABLE
  2
APPID
  5
9
330
0
100
AcDbSymbolTable
 70
     2
  0
APPID
  5
12
330
9
100
AcDbSymbolTableRecord
100
AcDbRegAppTableRecord
  2
ACAD
 70
     0
  0
ENDTAB
  0
TABLE
  2
DIMSTYLE
  5
A
330
0
100
AcDbSymbolTable
 70
     1
  0
DIMSTYLE
105
27
330
A
100
AcDbSymbolTableRecord
100
AcDbDimStyleTableRecord
  2
ISO-25
 70
     0
  3

  4

  5

  6

  7

 40
1.0
 41
2.5
 42
0.625
 43
3.75
 44
1.25
 45
0.0
 46
0.0
 47
0.0
 48
0.0
140
2.5
141
2.5
142
0.0
143
0.03937007874016
144
1.0
145
0.0
146
1.0
147
0.625
 71
     0
 72
     0
 73
     0
 74
     0
 75
     0
 76
     0
 77
     1
 78
     8
170
     0
171
     3
172
     1
173
     0
174
     0
175
     0
176
     0
177
     0
178
     0
270
     2
271
     2
272
     2
273
     2
274
     3
340
11
275
     0
280
     0
281
     0
282
     0
283
     0
284
     8
285
     0
286
     0
287
     3
288
     0
  0
ENDTAB
  0
TABLE
  2
BLOCK_RECORD
  5
1
330
0
100
AcDbSymbolTable
 70
     1
  0
BLOCK_RECORD
  5
1F
330
1
100
AcDbSymbolTableRecord
100
AcDbBlockTableRecord
  2
*MODEL_SPACE
  0
BLOCK_RECORD
  5
1B
330
1
100
AcDbSymbolTableRecord
100
AcDbBlockTableRecord
  2
*PAPER_SPACE
  0
ENDTAB
  0
ENDSEC
  0
SECTION
  2
BLOCKS
  0
BLOCK
  5
20
330
1F
100
AcDbEntity
  8
0
100
AcDbBlockBegin
  2
*MODEL_SPACE
 70
     0
 10
0.0
 20
0.0
 30
0.0
  3
*MODEL_SPACE
  1

  0
ENDBLK
  5
21
330
1F
100
AcDbEntity
  8
0
100
AcDbBlockEnd
  0
BLOCK
  5
1C
330
1B
100
AcDbEntity
 67
     1
  8
0
100
AcDbBlockBegin
  2
*PAPER_SPACE
  1

  0
ENDBLK
  5
1D
330
1B
100
AcDbEntity
 67
     1
  8
0
100
AcDbBlockEnd
  0
ENDSEC
  0
SECTION
  2
ENTITIES
0
DIMENSION
5
83
100
AcDbEntity
62
256
370
-1
6
ByLayer
1
total_width
3
Standard
70
0
71
5
72
1
41
1.0
100
AcDbAlignedDimension
13
2.636591
23
0.000000
33
0.0
14
124.133681
24
0.000000
34
0.0
50
0.000000
100
AcDbRotatedDimension
0
DIMENSION
5
83
100
AcDbEntity
62
256
370
-1
6
ByLayer
1
total_height
3
Standard
70
0
71
5
72
1
41
1.0
100
AcDbAlignedDimension
13
0.000000
23
1.646034
33
0.0
14
0.000000
24
15.483949
34
0.0
50
90.000000
100
AcDbRotatedDimension
0
DIMENSION
8
Layer_1
5
83
100
AcDbEntity
62
256
370
-1
6
ByLayer
1
Layer_1_width
3
Standard
70
0
71
5
72
1
41
1.0
100
AcDbAlignedDimension
13
2.636591
23
0.000000
33
0.0
14
124.133681
24
0.000000
34
0.0
50
0.000000
100
AcDbRotatedDimension
0
DIMENSION
8
Layer_1
5
83
100
AcDbEntity
62
256
370
-1
6
ByLayer
1
Layer_1_height
3
Standard
70
0
71
5
72
1
41
1.0
100
AcDbAlignedDimension
13
0.000000
23
1.646034
33
0.0
14
0.000000
24
15.483949
34
0.0
50
90.000000
100
AcDbRotatedDimension
0
LWPOLYLINE
100
AcDbPolyline
8
Layer_1
90
9
70
0
10
12.877871
20
11.948274
30
0.0
10
12.877871
20
1.788274
30
0.0
10
8.712271
20
1.788274
30
0.0
10
8.712271
20
11.948274
30
0.0
10
2.636591
20
11.948274
30
0.0
10
2.636591
20
15.341709
30
0.0
10
18.851951
20
15.341709
30
0.0
10
18.851951
20
11.948274
30
0.0
10
12.877871
20
11.948274
30
0.0
0
LWPOLYLINE
100
AcDbPolyline
8
Layer_1
90
14
70
0
10
24.505356
20
8.575154
30
0.0
10
30.702956
20
8.575154
30
0.0
10
30.967116
20
8.554834
30
0.0
10
31.231276
20
8.554834
30
0.0
10
32.369196
20
8.636114
30
0.0
10
32.999116
20
8.920594
30
0.0
10
33.263276
20
9.509874
30
0.0
10
33.324236
20
10.444594
30
0.0
10
33.202316
20
11.298034
30
0.0
10
32.836556
20
11.785714
30
0.0
10
32.125356
20
12.009234
30
0.0
10
31.007756
20
12.049874
30
0.0
10
24.505356
20
12.049874
30
0.0
10
24.505356
20
8.575154
30
0.0
0
LWPOLYLINE
100
AcDbPolyline
8
Layer_1
90
28
70
0
10
24.505356
20
5.283314
30
0.0
10
24.505356
20
1.788274
30
0.0
10
20.339756
20
1.788274
30
0.0
10
20.339756
20
15.341709
30
0.0
10
32.938156
20
15.341709
30
0.0
10
35.051436
20
15.097869
30
0.0
10
35.838823
20
14.803217
30
0.0
10
36.453516
20
14.366354
30
0.0
10
36.920863
20
13.782133
30
0.0
10
37.225676
20
13.045554
30
0.0
10
37.469516
20
11.054194
30
0.0
10
37.266316
20
9.123794
30
0.0
10
37.032623
20
8.488794
30
0.0
10
36.697356
20
8.006194
30
0.0
10
35.782956
20
7.396594
30
0.0
10
34.543436
20
6.990194
30
0.0
10
35.620396
20
6.766674
30
0.0
10
36.494156
20
6.421234
30
0.0
10
37.083436
20
5.649074
30
0.0
10
37.306956
20
4.226674
30
0.0
10
37.306956
20
1.788274
30
0.0
10
33.141356
20
1.788274
30
0.0
10
33.141356
20
3.576434
30
0.0
10
33.049905
20
4.333354
30
0.0
10
32.775596
20
4.856594
30
0.0
10
32.247265
20
5.176634
30
0.0
10
31.353196
20
5.283314
30
0.0
10
24.505356
20
5.283314
30
0.0
0
LWPOLYLINE
100
AcDbPolyline
8
Layer_1
90
5
70
0
10
43.693786
20
15.341709
30
0.0
10
43.693786
20
1.788274
30
0.0
10
39.528186
20
1.788274
30
0.0
10
39.528186
20
15.341709
30
0.0
10
43.693786
20
15.341709
30
0.0
0
LWPOLYLINE
100
AcDbPolyline
8
Layer_1
90
11
70
0
10
46.057256
20
1.788274
30
0.0
10
46.057256
20
15.341709
30
0.0
10
60.423496
20
15.341709
30
0.0
10
60.423496
20
12.171794
30
0.0
10
50.141576
20
12.171794
30
0.0
10
50.141576
20
9.509874
30
0.0
10
59.895176
20
9.509874
30
0.0
10
59.895176
20
6.461874
30
0.0
10
50.141576
20
6.461874
30
0.0
10
50.141576
20
1.788274
30
0.0
10
46.057256
20
1.788274
30
0.0
0
LWPOLYLINE
100
AcDbPolyline
8
Layer_1
90
26
70
0
10
65.628591
20
9.144114
30
0.0
10
65.648911
20
7.396594
30
0.0
10
65.811471
20
6.218034
30
0.0
10
66.217871
20
5.506834
30
0.0
10
66.990031
20
5.141074
30
0.0
10
68.229551
20
4.998834
30
0.0
10
70.038031
20
4.978514
30
0.0
10
73.329871
20
5.019154
30
0.0
10
74.350940
20
5.151234
30
0.0
10
75.057071
20
5.425554
30
0.0
10
75.514260
20
5.877674
30
0.0
10
75.747951
20
6.543154
30
0.0
10
75.869871
20
8.778354
30
0.0
10
75.747951
20
10.627474
30
0.0
10
75.580300
20
11.226914
30
0.0
10
75.280591
20
11.643474
30
0.0
10
74.828460
20
11.922853
30
0.0
10
74.203631
20
12.070194
30
0.0
10
72.313871
20
12.151474
30
0.0
10
68.859471
20
12.151474
30
0.0
10
67.691065
20
12.085413
30
0.0
10
66.827471
20
11.887314
30
0.0
10
66.233106
20
11.546944
30
0.0
10
65.872431
20
11.013554
30
0.0
10
65.689546
20
10.231234
30
0.0
10
65.628591
20
9.144114
30
0.0
0
LWPOLYLINE
100
AcDbPolyline
8
Layer_1
90
34
70
0
10
61.422351
20
7.274674
30
0.0
10
61.462991
20
10.586834
30
0.0
10
61.589991
20
11.877144
30
0.0
10
61.849071
20
12.943954
30
0.0
10
62.285949
20
13.797373
30
0.0
10
62.905711
20
14.447634
30
0.0
10
63.789628
20
14.935301
30
0.0
10
64.978351
20
15.260429
30
0.0
10
68.290511
20
15.443309
30
0.0
10
74.610031
20
15.483949
30
0.0
10
76.824911
20
15.260429
30
0.0
10
77.683418
20
14.970861
30
0.0
10
78.389551
20
14.549234
30
0.0
10
78.968657
20
14.005653
30
0.0
10
79.405551
20
13.309714
30
0.0
10
79.715416
20
12.456253
30
0.0
10
79.913551
20
11.440274
30
0.0
10
79.994831
20
9.956914
30
0.0
10
80.015151
20
7.823314
30
0.0
10
79.832271
20
5.303634
30
0.0
10
79.583336
20
4.368914
30
0.0
10
79.202351
20
3.596754
30
0.0
10
78.679098
20
2.982074
30
0.0
10
78.003471
20
2.519794
30
0.0
10
76.154351
20
1.930514
30
0.0
10
73.512751
20
1.706994
30
0.0
10
69.997391
20
1.646034
30
0.0
10
66.095951
20
1.788274
30
0.0
10
64.617668
20
2.016874
30
0.0
10
63.434031
20
2.458834
30
0.0
10
62.534868
20
3.164954
30
0.0
10
61.910031
20
4.145394
30
0.0
10
61.544271
20
5.496674
30
0.0
10
61.422351
20
7.274674
30
0.0
0
LWPOLYLINE
100
AcDbPolyline
8
Layer_1
90
14
70
0
10
86.060667
20
8.575154
30
0.0
10
92.258269
20
8.575154
30
0.0
10
92.522427
20
8.554834
30
0.0
10
92.786587
20
8.554834
30
0.0
10
93.924509
20
8.636114
30
0.0
10
94.554427
20
8.920594
30
0.0
10
94.818589
20
9.509874
30
0.0
10
94.879547
20
10.444594
30
0.0
10
94.757629
20
11.298034
30
0.0
10
94.391869
20
11.785714
30
0.0
10
93.680667
20
12.009234
30
0.0
10
92.563067
20
12.049874
30
0.0
10
86.060667
20
12.049874
30
0.0
10
86.060667
20
8.575154
30
0.0
0
LWPOLYLINE
100
AcDbPolyline
8
Layer_1
90
28
70
0
10
86.060667
20
5.283314
30
0.0
10
86.060667
20
1.788274
30
0.0
10
81.895067
20
1.788274
30
0.0
10
81.895067
20
15.341709
30
0.0
10
94.493467
20
15.341709
30
0.0
10
96.606747
20
15.097869
30
0.0
10
97.394135
20
14.803217
30
0.0
10
98.008827
20
14.366354
30
0.0
10
98.476174
20
13.782133
30
0.0
10
98.780987
20
13.045554
30
0.0
10
99.024829
20
11.054194
30
0.0
10
98.821627
20
9.123794
30
0.0
10
98.587934
20
8.488794
30
0.0
10
98.252667
20
8.006194
30
0.0
10
97.338269
20
7.396594
30
0.0
10
96.098749
20
6.990194
30
0.0
10
97.175707
20
6.766674
30
0.0
10
98.049467
20
6.421234
30
0.0
10
98.638749
20
5.649074
30
0.0
10
98.862267
20
4.226674
30
0.0
10
98.862267
20
1.788274
30
0.0
10
94.696667
20
1.788274
30
0.0
10
94.696667
20
3.576434
30
0.0
10
94.605219
20
4.333354
30
0.0
10
94.330909
20
4.856594
30
0.0
10
93.802579
20
5.176634
30
0.0
10
92.908507
20
5.283314
30
0.0
10
86.060667
20
5.283314
30
0.0
0
LWPOLYLINE
100
AcDbPolyline
8
Layer_1
90
14
70
0
10
105.188139
20
15.341709
30
0.0
10
105.188139
20
10.241394
30
0.0
10
107.321737
20
10.241394
30
0.0
10
112.909737
20
15.341709
30
0.0
10
118.599337
20
15.341709
30
0.0
10
110.837097
20
8.636114
30
0.0
10
119.432457
20
1.788274
30
0.0
10
113.397417
20
1.788274
30
0.0
10
107.321737
20
6.949554
30
0.0
10
105.188139
20
6.949554
30
0.0
10
105.188139
20
1.788274
30
0.0
10
101.103817
20
1.788274
30
0.0
10
101.103817
20
15.341709
30
0.0
10
105.188139
20
15.341709
30
0.0
0
LWPOLYLINE
100
AcDbPolyline
8
Layer_1
90
5
70
0
10
124.133681
20
5.567794
30
0.0
10
124.133681
20
1.788274
30
0.0
10
120.049361
20
1.788274
30
0.0
10
120.049361
20
5.567794
30
0.0
10
124.133681
20
5.567794
30
0.0
  0
ENDSEC
  0
SECTION
  2
OBJECTS
  0
DICTIONARY
  5
C
330
0
100
AcDbDictionary
  3
ACAD_GROUP
350
D
  3
ACAD_MLINESTYLE
350
17
  0
DICTIONARY
  5
D
330
C
100
AcDbDictionary
  0
DICTIONARY
  5
1A
330
C
100
AcDbDictionary
  0
DICTIONARY
  5
17
330
C
100
AcDbDictionary
  3
STANDARD
350
18
  0
DICTIONARY
  5
19
330
C
100
AcDbDictionary
  0
ENDSEC
  0
EOF
